<svg width="24" height="24" viewBox="0 0 24 24" fill="none" xmlns="http://www.w3.org/2000/svg">
<g id="Message icon">
<g id="Message icon_2">
<path id="Vector (Stroke)" fill-rule="evenodd" clip-rule="evenodd" d="M1.99997 5.24998C1.99997 4.6977 2.44768 4.24998 2.99997 4.24998H21C21.5523 4.24998 22 4.6977 22 5.24998V18.75C22 19.3023 21.5523 19.75 21 19.75H2.99997C2.44768 19.75 1.99997 19.3023 1.99997 18.75V5.24998ZM3.99997 6.24998V17.75H20V6.24998H3.99997Z" fill="#9098B1"/>
<path id="Vector (Stroke)_2" fill-rule="evenodd" clip-rule="evenodd" d="M2.24072 4.59922C2.60014 4.17989 3.23144 4.13132 3.65077 4.49074L12 11.6471L20.3492 4.49074C20.7686 4.13132 21.3999 4.17989 21.7593 4.59922C22.1187 5.01854 22.0701 5.64984 21.6508 6.00926L12.6508 13.7234C12.2763 14.0444 11.7237 14.0444 11.3492 13.7234L2.3492 6.00926C1.92987 5.64984 1.88131 5.01854 2.24072 4.59922Z" fill="#9098B1"/>
</g>
</g>
</svg>
